<svg width="172" height="57" viewBox="0 0 172 57" fill="none" xmlns="http://www.w3.org/2000/svg">
<g filter="url(#filter0_d_139_100673)">
<path d="M114.59 42.6788C115.18 42.6788 115.683 42.895 116.098 43.3274C116.514 43.7598 116.722 44.282 116.722 44.8941C116.722 45.5119 116.514 46.0369 116.098 46.4693C115.688 46.8961 115.186 47.1095 114.59 47.1095C113.889 47.1095 113.358 46.8315 112.998 46.2756V47H112.266V41.1036H112.998V43.5127C113.358 42.9568 113.889 42.6788 114.59 42.6788ZM114.498 46.4019C114.919 46.4019 115.273 46.2587 115.559 45.9723C115.846 45.6803 115.989 45.3209 115.989 44.8941C115.989 44.4674 115.846 44.1108 115.559 43.8244C115.273 43.5324 114.919 43.3864 114.498 43.3864C114.071 43.3864 113.714 43.5324 113.428 43.8244C113.142 44.1108 112.998 44.4674 112.998 44.8941C112.998 45.3209 113.142 45.6803 113.428 45.9723C113.714 46.2587 114.071 46.4019 114.498 46.4019ZM120.371 42.7883H121.155L119.436 47.2611C119.257 47.7385 119.004 48.1007 118.678 48.3477C118.358 48.6004 117.988 48.7128 117.566 48.6847V48.0024C118.077 48.0473 118.456 47.7609 118.703 47.1432L118.779 46.9832L116.943 42.7883H117.726L119.158 46.0903L120.371 42.7883Z" fill="#636363"/>
</g>
<path d="M151.532 43.679C151.532 42.366 152.61 41.3004 153.945 41.3004C155.281 41.3004 156.358 42.366 156.358 43.679C156.358 44.9919 155.281 46.0575 153.945 46.0575C152.619 46.0575 151.532 44.9919 151.532 43.679ZM150.683 43.679C150.683 45.4581 152.142 46.8948 153.945 46.8948C155.748 46.8948 157.207 45.4581 157.207 43.679C157.207 41.8998 155.748 40.4631 153.945 40.4631C152.152 40.4631 150.683 41.8998 150.683 43.679Z" fill="url(#paint0_linear_139_100673)"/>
<path d="M141.19 43.679C141.19 45.4581 142.65 46.8948 144.453 46.8948C145.941 46.8948 147.191 45.9148 147.582 44.5828H146.685C146.323 45.4486 145.454 46.0575 144.453 46.0575C143.117 46.0575 142.039 44.9919 142.039 43.679C142.039 42.366 143.117 41.3004 144.453 41.3004C145.474 41.3004 146.342 41.9188 146.695 42.7941H147.591C147.2 41.4526 145.941 40.4631 144.453 40.4631C142.65 40.4631 141.19 41.8998 141.19 43.679Z" fill="url(#paint1_linear_139_100673)"/>
<path d="M149.565 38.0107H148.726V46.6973H149.565V38.0107Z" fill="url(#paint2_linear_139_100673)"/>
<path d="M165.963 43.6813C165.963 42.3683 167.041 41.3027 168.377 41.3027C169.712 41.3027 170.79 42.3683 170.79 43.6813C170.79 44.9942 169.712 46.0598 168.377 46.0598C167.041 46.0598 165.963 44.9942 165.963 43.6813ZM170.79 38.0107V41.845C170.294 41.1124 169.331 40.4654 168.377 40.4654C166.574 40.4654 165.114 41.9021 165.114 43.6813C165.114 45.4604 166.574 46.8971 168.377 46.8971C169.331 46.8971 170.199 46.488 170.79 45.841C171.267 45.3177 171.582 44.6422 171.63 43.9001C171.639 43.824 171.639 43.7574 171.639 43.6813C171.639 43.6052 171.639 43.5386 171.63 43.4624V38.0107H170.79Z" fill="url(#paint3_linear_139_100673)"/>
<path d="M163.32 40.644V44.0882C163.32 45.1538 162.452 46.0291 161.374 46.0291H160.945C159.876 46.0291 158.999 45.1633 158.999 44.0882V40.644H158.159V44.2309C158.159 45.6771 159.342 46.8569 160.792 46.8569H161.517C162.967 46.8569 164.15 45.6771 164.15 44.2309V40.644H163.32Z" fill="url(#paint4_linear_139_100673)"/>
<path d="M134.351 40.4626C132.844 40.4626 131.623 41.6805 131.623 43.1837V46.6945H132.462V43.1362C132.462 42.1181 133.283 41.2999 134.304 41.2999H134.971C135.992 41.2999 136.812 42.1181 136.812 43.1362V46.6945H137.652V43.1837C137.652 41.6805 136.431 40.4626 134.924 40.4626H134.351Z" fill="url(#paint5_linear_139_100673)"/>
<path d="M139.854 40.6296H139.015V46.6998H139.854V40.6296Z" fill="url(#paint6_linear_139_100673)"/>
<path d="M129.561 38.6392V43.7864C129.561 44.9281 128.626 45.8605 127.481 45.8605H126.737C125.593 45.8605 124.658 44.9376 124.658 43.7864V38.6392H123.818V43.7483C123.818 45.3753 125.144 46.6978 126.776 46.6978H127.434C129.065 46.6978 130.391 45.3753 130.391 43.7483V38.6392H129.561Z" fill="url(#paint7_linear_139_100673)"/>
<path d="M138.784 38.9629C138.784 39.3149 139.07 39.6099 139.433 39.6099C139.786 39.6099 140.082 39.3244 140.082 38.9629C140.082 38.6109 139.795 38.3159 139.433 38.3159C139.08 38.3159 138.784 38.6109 138.784 38.9629Z" fill="url(#paint8_linear_139_100673)"/>
<path d="M20.3215 15.263V15.2258C20.3626 13.5288 19.9526 11.8513 19.1334 10.3643C18.358 8.99749 17.2093 7.87957 15.8215 7.14125C14.2871 6.35119 12.5794 5.95721 10.8537 5.99518H-0.000976562V32.9587H5.64578V24.4729H10.8413C12.5669 24.5108 14.2747 24.1169 15.8091 23.3268C17.1968 22.5885 18.3456 21.4706 19.121 20.1038C19.9426 18.6247 20.3569 16.9543 20.3215 15.263ZM14.5837 15.263C14.5837 16.7856 14.1325 17.9564 13.2383 18.7881C12.344 19.6197 11.0855 20.05 9.45858 20.05H5.64578V10.476H9.45858C11.0814 10.476 12.3413 10.8897 13.2383 11.7172C14.1325 12.5447 14.5837 13.7156 14.5837 15.2589V15.263Z" fill="#0072BC"/>
<path d="M32.6422 5.99268H27.6835L18.3418 32.9587H24.2297L26.2486 26.4199H35.7054L37.7201 32.9587H43.6245L34.2951 5.99268H32.6422ZM27.552 22.1971L30.9441 11.2329H31.0551L34.4267 22.1971H27.552Z" fill="#0072BC"/>
<path d="M50.8774 17.5023H50.7457L44.7253 5.99268H38.668L47.9968 22.8847V32.9587H53.6098V22.8847L62.9592 5.99268H56.8812L50.8774 17.5023Z" fill="#0072BC"/>
<path d="M85.9244 22.0555C85.368 21.114 84.5782 20.3309 83.6308 19.7813C82.6081 19.1911 81.4562 18.859 80.2754 18.8138V18.7021C81.2395 18.5798 82.1592 18.225 82.9547 17.6684C83.732 17.1256 84.3712 16.4091 84.8211 15.5761C85.2752 14.7293 85.5091 13.7825 85.5014 12.8223V12.7809C85.5323 11.5098 85.1813 10.2584 84.4935 9.18768C83.7872 8.13839 82.79 7.31661 81.6234 6.82252C80.225 6.24253 78.7203 5.96082 77.2062 5.99553H65.4395V32.9551H77.4218C79.1292 32.9967 80.8259 32.6753 82.399 32.0124C83.7084 31.4533 84.8276 30.5285 85.6216 29.3495C86.3962 28.1355 86.7904 26.719 86.7539 25.2807V25.2435C86.7727 24.1255 86.486 23.0235 85.9244 22.0555ZM75.7628 10.209C77.0859 10.209 78.1186 10.4984 78.8528 11.0856C79.2204 11.3829 79.5124 11.7625 79.7049 12.1937C79.8973 12.6249 79.9848 13.0953 79.9602 13.5666V13.6038C79.9871 14.1218 79.8881 14.6386 79.6714 15.1102C79.4548 15.5818 79.1269 15.9941 78.7159 16.3121C77.8864 16.9448 76.6711 17.2632 75.0702 17.2632H71.1175V10.209H75.7628ZM80.9888 24.9251C81.0202 25.4685 80.9193 26.0114 80.6947 26.5075C80.4701 27.0036 80.1284 27.4382 79.6989 27.7741C78.8362 28.4274 77.5988 28.7541 75.9868 28.7541H71.0968V21.0962H75.7255C76.71 21.0642 77.6926 21.2041 78.6288 21.5097C79.3366 21.7401 79.9534 22.1872 80.3915 22.7874C80.7963 23.3998 81.0019 24.1217 80.9805 24.8549L80.9888 24.9251Z" fill="#0072BC"/>
<path d="M128.851 20.9739L125.916 26.5852L130.665 35.955L135.831 35.0469L128.851 20.9739Z" fill="#0072BC"/>
<path d="M128.751 17.9775L136.327 3.918L130.948 2.99634L125.916 12.431L128.751 17.9775Z" fill="#0072BC"/>
<path d="M125.55 13.9134L118.96 1.16558L112.078 0L122.452 19.6472L112.036 38.9509L118.349 37.8712L125.319 25.0744L128.396 19.4223L125.55 13.9134Z" fill="#0072BC"/>
<path d="M96.475 11.7689V14.6318C96.4745 14.8616 96.388 15.0827 96.2329 15.2504C96.0779 15.4182 95.8658 15.5201 95.6395 15.5356L93.9404 15.6501C93.82 15.6573 93.6995 15.6398 93.586 15.5987C93.4725 15.5576 93.3684 15.4937 93.2798 15.4108C93.1913 15.328 93.1202 15.2278 93.0707 15.1165C93.0212 15.0051 92.9944 14.8848 92.9919 14.7626V12.0265C92.9924 11.8084 93.0701 11.5977 93.2108 11.4327C93.3514 11.2676 93.5459 11.1591 93.7587 11.1268L95.4579 10.8732C95.5844 10.8551 95.7133 10.8646 95.8358 10.9013C95.9583 10.938 96.0716 11.001 96.1681 11.0859C96.2645 11.1708 96.3418 11.2758 96.3948 11.3936C96.4477 11.5114 96.4751 11.6394 96.475 11.7689ZM97.1611 8.19847L91.9708 9.1923C91.7656 9.23138 91.5803 9.34185 91.4469 9.50463C91.3135 9.66742 91.2405 9.8723 91.2403 10.0839V17.0938C91.2402 17.2152 91.2642 17.3353 91.3107 17.4471C91.3573 17.5588 91.4254 17.66 91.5112 17.7447C91.597 17.8293 91.6986 17.8957 91.8102 17.9398C91.9217 17.984 92.0408 18.0051 92.1605 18.0018L97.3508 17.8586C97.587 17.8565 97.8128 17.7599 97.9791 17.5898C98.1454 17.4198 98.2387 17.1901 98.2387 16.9507V9.09005C98.2383 8.95524 98.2085 8.82218 98.1513 8.70046C98.0941 8.57873 98.0109 8.47138 97.9079 8.38611C97.8048 8.30085 97.6844 8.23979 97.5553 8.20735C97.4261 8.1749 97.2915 8.17187 97.1611 8.19847ZM96.475 24.3042V27.1671C96.4752 27.2974 96.4477 27.4261 96.3943 27.5446C96.3409 27.6631 96.2628 27.7685 96.1654 27.8536C96.0681 27.9386 95.9537 28.0014 95.8302 28.0375C95.7067 28.0736 95.5769 28.0822 95.4498 28.0628L93.7507 27.8092C93.5381 27.7778 93.3438 27.6701 93.203 27.5057C93.0623 27.3413 92.9845 27.1312 92.9838 26.9135V24.1733C92.9874 24.0512 93.0152 23.931 93.0656 23.82C93.1161 23.709 93.1881 23.6095 93.2774 23.5274C93.3667 23.4453 93.4715 23.3823 93.5854 23.3422C93.6993 23.3021 93.82 23.2857 93.9404 23.294L95.6395 23.4085C95.8644 23.424 96.0753 23.5247 96.2302 23.6907C96.385 23.8567 96.4724 24.0758 96.475 24.3042ZM97.3508 21.0896L92.1605 20.9505C92.041 20.9467 91.922 20.9673 91.8105 21.011C91.699 21.0547 91.5973 21.1206 91.5114 21.2049C91.4256 21.2893 91.3574 21.3902 91.3108 21.5018C91.2642 21.6133 91.2402 21.7333 91.2403 21.8544V28.8644C91.2397 29.0762 91.3125 29.2814 91.446 29.4444C91.5795 29.6073 91.7652 29.7176 91.9708 29.7559L97.1611 30.7498C97.2904 30.7744 97.4236 30.7699 97.551 30.7364C97.6784 30.703 97.797 30.6416 97.8983 30.5565C97.9997 30.4714 98.0813 30.3647 98.1373 30.244C98.1933 30.1233 98.2224 29.9916 98.2225 29.8582V21.9975C98.2226 21.7609 98.1316 21.5336 97.9687 21.3641C97.8059 21.1945 97.5842 21.096 97.3508 21.0896ZM105.786 10.3743V14.0101C105.786 14.2404 105.699 14.4619 105.544 14.6303C105.389 14.7988 105.177 14.9015 104.951 14.9181L103.251 15.0326C103.129 15.0416 103.006 15.0249 102.89 14.9835C102.774 14.9421 102.668 14.877 102.578 14.7921C102.489 14.7073 102.417 14.6046 102.368 14.4904C102.32 14.3763 102.295 14.2531 102.295 14.1287V10.6156C102.295 10.3983 102.371 10.1882 102.512 10.0237C102.652 9.8592 102.845 9.75135 103.058 9.71989L104.757 9.46223C104.885 9.44261 105.017 9.45163 105.142 9.48865C105.267 9.52567 105.382 9.58981 105.48 9.67661C105.578 9.7634 105.656 9.87077 105.709 9.99125C105.762 10.1117 105.788 10.2424 105.786 10.3743ZM106.468 6.42349L101.278 7.41323C101.073 7.45303 100.888 7.56371 100.755 7.72634C100.622 7.88896 100.548 8.09344 100.547 8.30481V16.8403C100.548 16.9614 100.572 17.0813 100.619 17.1928C100.666 17.3044 100.734 17.4053 100.819 17.4899C100.905 17.5744 101.007 17.6408 101.118 17.6851C101.229 17.7295 101.348 17.7509 101.467 17.7482L106.658 17.6051C106.89 17.5966 107.109 17.4972 107.271 17.3278C107.432 17.1585 107.522 16.9324 107.521 16.6971V7.31507C107.521 7.18252 107.492 7.05165 107.437 6.93165C107.381 6.81165 107.3 6.70544 107.2 6.62047C107.099 6.53549 106.982 6.47383 106.855 6.4398C106.729 6.40577 106.597 6.4002 106.468 6.42349ZM100.547 21.1796L102.295 21.2246V23.8502L100.547 23.7316V21.1796ZM102.295 23.8502L104.038 23.9688V26.6681L102.295 26.4759V23.8502ZM104.038 21.2736L105.786 21.3227V24.112L104.038 23.9893V21.2736ZM100.547 26.2878L102.295 26.4759V29.1057L100.547 28.8439V26.2878ZM102.295 29.1057L104.038 29.3674V32.0626L102.295 31.7313V29.1057ZM104.038 26.6518L105.786 26.844V29.6128L104.038 29.351V26.6518ZM105.786 24.112L107.53 24.2306V27.0689L105.786 26.8808V24.112ZM105.786 29.6496L107.53 29.9114V32.7497L105.786 32.4184V29.6496ZM111.033 7.06559L109.289 7.3028V4.63623C109.288 4.43445 109.243 4.23535 109.158 4.05327C109.072 3.87118 108.947 3.71062 108.793 3.58314C108.638 3.45566 108.458 3.36441 108.265 3.31597C108.072 3.26752 107.87 3.26307 107.675 3.30295C107.38 3.36839 104.704 4.30905 104.321 4.39084V1.85515C105.411 1.5566 108.518 0.27239 109.354 0.0474498C109.553 -0.0072832 109.761 -0.0147777 109.964 0.0255484C110.166 0.0658746 110.356 0.152935 110.52 0.279957C110.683 0.406978 110.816 0.570537 110.907 0.75791C110.998 0.945283 111.045 1.15142 111.045 1.36028L111.033 7.06559ZM111.033 37.6084V29.4288L108.704 29.1098V33.1996C108.704 33.4016 108.659 33.6011 108.574 33.7835C108.488 33.966 108.364 34.1269 108.209 34.2545C108.055 34.3821 107.874 34.4733 107.68 34.5215C107.487 34.5696 107.285 34.5735 107.09 34.5329C106.525 34.4061 104.809 34.1975 104.059 34.0339V37.3876C105.75 37.8456 107.994 38.5409 109.346 38.909C109.543 38.9597 109.748 38.9645 109.947 38.9231C110.146 38.8818 110.333 38.7952 110.494 38.6701C110.655 38.5449 110.787 38.3843 110.878 38.2005C110.969 38.0166 111.018 37.8142 111.021 37.6084H111.033ZM88.7541 33.3059L93.5771 34.6228V31.5964L91.1555 31.0647C90.8558 30.9992 90.5873 30.8315 90.3949 30.5896C90.2024 30.3477 90.0977 30.0462 90.0981 29.7355V26.5659L87.7693 26.2469V31.9726C87.7685 32.2689 87.863 32.5573 88.0385 32.7942C88.2141 33.0312 88.461 33.2036 88.742 33.2855L88.7541 33.3059ZM87.7451 6.9797V12.7055L90.0739 12.3865V9.2332C90.0742 8.92268 90.1792 8.6216 90.3715 8.37985C90.5639 8.1381 90.8319 7.97021 91.1313 7.904L93.5529 7.37233V4.34995L88.742 5.66687C88.4565 5.7442 88.2042 5.91473 88.0239 6.15205C87.8437 6.38937 87.7457 6.68026 87.7451 6.9797Z" fill="url(#paint9_linear_139_100673)"/>
<defs>
<filter id="filter0_d_139_100673" x="105.505" y="35.4695" width="22.4102" height="21.1449" filterUnits="userSpaceOnUse" color-interpolation-filters="sRGB">
<feFlood flood-opacity="0" result="BackgroundImageFix"/>
<feColorMatrix in="SourceAlpha" type="matrix" values="0 0 0 0 0 0 0 0 0 0 0 0 0 0 0 0 0 0 127 0" result="hardAlpha"/>
<feOffset dy="1.1268"/>
<feGaussianBlur stdDeviation="3.38039"/>
<feComposite in2="hardAlpha" operator="out"/>
<feColorMatrix type="matrix" values="0 0 0 0 1 0 0 0 0 1 0 0 0 0 1 0 0 0 0.65 0"/>
<feBlend mode="normal" in2="BackgroundImageFix" result="effect1_dropShadow_139_100673"/>
<feBlend mode="normal" in="SourceGraphic" in2="effect1_dropShadow_139_100673" result="shape"/>
</filter>
<linearGradient id="paint0_linear_139_100673" x1="153.945" y1="37.8615" x2="153.945" y2="46.512" gradientUnits="userSpaceOnUse">
<stop stop-color="#2DC3E8"/>
<stop offset="1" stop-color="#0097D6"/>
</linearGradient>
<linearGradient id="paint1_linear_139_100673" x1="144.391" y1="37.8615" x2="144.391" y2="46.512" gradientUnits="userSpaceOnUse">
<stop stop-color="#2DC3E8"/>
<stop offset="1" stop-color="#0097D6"/>
</linearGradient>
<linearGradient id="paint2_linear_139_100673" x1="149.145" y1="37.8638" x2="149.145" y2="46.5143" gradientUnits="userSpaceOnUse">
<stop stop-color="#2DC3E8"/>
<stop offset="1" stop-color="#0097D6"/>
</linearGradient>
<linearGradient id="paint3_linear_139_100673" x1="168.377" y1="37.8638" x2="168.377" y2="46.5143" gradientUnits="userSpaceOnUse">
<stop stop-color="#2DC3E8"/>
<stop offset="1" stop-color="#0097D6"/>
</linearGradient>
<linearGradient id="paint4_linear_139_100673" x1="161.154" y1="37.8616" x2="161.154" y2="46.5122" gradientUnits="userSpaceOnUse">
<stop stop-color="#2DC3E8"/>
<stop offset="1" stop-color="#0097D6"/>
</linearGradient>
<linearGradient id="paint5_linear_139_100673" x1="134.637" y1="38.2154" x2="134.637" y2="46.6763" gradientUnits="userSpaceOnUse">
<stop stop-color="#F58220"/>
<stop offset="1" stop-color="#F04E25"/>
</linearGradient>
<linearGradient id="paint6_linear_139_100673" x1="139.434" y1="38.2207" x2="139.434" y2="46.6815" gradientUnits="userSpaceOnUse">
<stop stop-color="#F58220"/>
<stop offset="1" stop-color="#F04E25"/>
</linearGradient>
<linearGradient id="paint7_linear_139_100673" x1="127.105" y1="38.2187" x2="127.105" y2="46.6795" gradientUnits="userSpaceOnUse">
<stop stop-color="#F58220"/>
<stop offset="1" stop-color="#F04E25"/>
</linearGradient>
<linearGradient id="paint8_linear_139_100673" x1="139.433" y1="38.2189" x2="139.433" y2="46.6798" gradientUnits="userSpaceOnUse">
<stop stop-color="#F58220"/>
<stop offset="1" stop-color="#F04E25"/>
</linearGradient>
<linearGradient id="paint9_linear_139_100673" x1="87.7492" y1="19.4741" x2="111.021" y2="19.4741" gradientUnits="userSpaceOnUse">
<stop stop-color="#F58220"/>
<stop offset="1" stop-color="#F04E25"/>
</linearGradient>
</defs>
</svg>
