<svg width="20" height="20" viewBox="0 0 20 20" fill="none" xmlns="http://www.w3.org/2000/svg">
<path fill-rule="evenodd" clip-rule="evenodd" d="M5.60649 4.71176C5.84273 5.0708 6.26526 5.43047 6.88598 5.73003C7.00522 5.27603 7.14339 4.85206 7.29838 4.46458C7.43748 4.11683 7.59298 3.79129 7.76499 3.49629C6.96955 3.76955 6.24008 4.18471 5.60649 4.71176ZM10 1.875C7.83472 1.875 5.86611 2.72282 4.41023 4.10336C2.84959 5.58324 1.875 7.67832 1.875 10C1.875 12.3217 2.84959 14.4168 4.41023 15.8966C5.86611 17.2772 7.83472 18.125 10 18.125C12.1653 18.125 14.1339 17.2772 15.5898 15.8966C17.1504 14.4168 18.125 12.3217 18.125 10C18.125 7.67831 17.1504 5.58324 15.5898 4.10336C14.1339 2.72282 12.1653 1.875 10 1.875ZM10 3.125C9.81302 3.125 9.57165 3.21716 9.28636 3.51883C8.99983 3.82181 8.71299 4.29378 8.45898 4.92882C8.31289 5.29404 8.18171 5.703 8.06898 6.14835C8.65409 6.29285 9.30691 6.375 10 6.375C10.6931 6.375 11.3459 6.29285 11.931 6.14835C11.8183 5.703 11.6871 5.29404 11.541 4.92882C11.287 4.29378 11.0002 3.82181 10.7136 3.51883C10.4284 3.21716 10.187 3.125 10 3.125ZM13.114 5.73003C12.9948 5.27602 12.8566 4.85206 12.7016 4.46458C12.5625 4.11683 12.407 3.79129 12.235 3.49629C13.0305 3.76955 13.7599 4.18471 14.3935 4.71176C14.1573 5.0708 13.7347 5.43047 13.114 5.73003ZM12.1788 7.37454C11.5021 7.53708 10.7658 7.625 10 7.625C9.23418 7.625 8.49793 7.53708 7.82119 7.37454C7.72377 7.99959 7.65964 8.67112 7.63562 9.375H12.3644C12.3404 8.67112 12.2762 7.99959 12.1788 7.37454ZM13.6151 9.375C13.5883 8.53675 13.508 7.73156 13.3813 6.98107C13.4696 6.94339 13.5563 6.90424 13.641 6.86363C14.3008 6.54753 14.8834 6.12531 15.2887 5.60708C16.1548 6.6484 16.7186 7.94873 16.847 9.375H13.6151ZM12.3644 10.625H7.63562C7.65964 11.3289 7.72377 12.0004 7.82119 12.6255C8.49793 12.4629 9.23418 12.375 10 12.375C10.7658 12.375 11.5021 12.4629 12.1788 12.6255C12.2762 12.0004 12.3404 11.3289 12.3644 10.625ZM13.3813 13.0189C13.508 12.2684 13.5883 11.4632 13.6151 10.625H16.847C16.7186 12.0513 16.1548 13.3516 15.2887 14.3929C14.8834 13.8747 14.3008 13.4525 13.641 13.1364C13.5563 13.0958 13.4696 13.0566 13.3813 13.0189ZM11.931 13.8517C11.3459 13.7071 10.6931 13.625 10 13.625C9.30691 13.625 8.65409 13.7071 8.06898 13.8517C8.18171 14.297 8.31289 14.706 8.45898 15.0712C8.71299 15.7062 8.99983 16.1782 9.28636 16.4812C9.57165 16.7828 9.81302 16.875 10 16.875C10.187 16.875 10.4284 16.7828 10.7136 16.4812C11.0002 16.1782 11.287 15.7062 11.541 15.0712C11.6871 14.706 11.8183 14.297 11.931 13.8517ZM12.235 16.5037C12.407 16.2087 12.5625 15.8832 12.7016 15.5354C12.8566 15.1479 12.9948 14.724 13.114 14.27C13.7347 14.5695 14.1573 14.9292 14.3935 15.2882C13.7599 15.8153 13.0305 16.2304 12.235 16.5037ZM7.76499 16.5037C7.59298 16.2087 7.43748 15.8832 7.29838 15.5354C7.14339 15.1479 7.00522 14.724 6.88598 14.27C6.26526 14.5695 5.84273 14.9292 5.60649 15.2882C6.24008 15.8153 6.96955 16.2304 7.76499 16.5037ZM4.71125 14.3929C5.11655 13.8747 5.69918 13.4525 6.35899 13.1364C6.44374 13.0958 6.53035 13.0566 6.61872 13.0189C6.49199 12.2684 6.41172 11.4632 6.38494 10.625H3.153C3.28144 12.0513 3.84522 13.3516 4.71125 14.3929ZM3.153 9.375H6.38494C6.41172 8.53675 6.49199 7.73157 6.61872 6.98107C6.53035 6.9434 6.44374 6.90424 6.35899 6.86363C5.69918 6.54753 5.11655 6.12532 4.71125 5.60709C3.84522 6.6484 3.28144 7.94873 3.153 9.375Z" fill="#1F2A37"/>
</svg>
