<svg width="24" height="24" viewBox="0 0 24 24" fill="none" xmlns="http://www.w3.org/2000/svg">
<path d="M7.64608 2.25706C6.9703 2.24193 6.2901 2.24256 5.62127 2.34785C4.66949 2.48025 3.76445 2.94808 3.1253 3.66747C2.31815 4.51674 2.01437 5.71468 2.00047 6.85965C1.99984 10.2851 1.99984 13.7106 2.00047 17.1367C2.02574 17.8788 2.123 18.636 2.44826 19.3131C2.98509 20.4846 4.10929 21.361 5.37558 21.6062C6.38168 21.796 7.41177 21.7487 8.42986 21.7336C9.00901 21.7639 9.59132 21.7367 10.1724 21.7462C12.1928 21.7456 14.2131 21.7462 16.2335 21.7456C16.8904 21.7538 17.5516 21.7241 18.1965 21.5911C19.3459 21.3465 20.3678 20.5823 20.9312 19.5533C21.4156 18.6763 21.5223 17.648 21.4964 16.6625L21.4465 16.7168C21.4554 16.6966 21.4724 16.6562 21.4813 16.6367C21.4781 13.2957 21.48 9.95095 21.4794 6.60872C21.4648 5.4215 21.0025 4.23113 20.136 3.40456C19.4457 2.78478 18.5527 2.39262 17.6249 2.322C16.9548 2.21923 16.2759 2.26463 15.6007 2.25643C13.0751 2.25202 10.5494 2.26273 8.02376 2.25328L7.64608 2.25706Z" fill="url(#paint0_linear_563_2330)"/>
<path d="M8.1 14.925V12H10.5375V9.5625C10.5375 6.6375 12.8125 6.15 13.95 6.15H16.3875V8.5875H14.925C13.755 8.5875 13.4625 9.5625 13.4625 10.05V12H16.3875L15.9 14.925H13.4625V21.75H10.5375V14.925H8.1Z" fill="white"/>
<defs>
<linearGradient id="paint0_linear_563_2330" x1="11.75" y1="2.25" x2="11.75" y2="21.6922" gradientUnits="userSpaceOnUse">
<stop stop-color="#18ACFE"/>
<stop offset="1" stop-color="#0163E0"/>
</linearGradient>
</defs>
</svg>
