<svg width="20" height="20" viewBox="0 0 20 20" fill="none" xmlns="http://www.w3.org/2000/svg">
<g id="Live area">
<path id="Vector" fill-rule="evenodd" clip-rule="evenodd" d="M1.25 4C1.25 3.58579 1.58579 3.25 2 3.25H18C18.4142 3.25 18.75 3.58579 18.75 4C18.75 4.41421 18.4142 4.75 18 4.75H2C1.58579 4.75 1.25 4.41421 1.25 4ZM1.25 10C1.25 9.58579 1.58579 9.25 2 9.25H18C18.4142 9.25 18.75 9.58579 18.75 10C18.75 10.4142 18.4142 10.75 18 10.75H2C1.58579 10.75 1.25 10.4142 1.25 10ZM1.25 16C1.25 15.5858 1.58579 15.25 2 15.25H18C18.4142 15.25 18.75 15.5858 18.75 16C18.75 16.4142 18.4142 16.75 18 16.75H2C1.58579 16.75 1.25 16.4142 1.25 16Z" fill="#111827"/>
</g>
</svg>
