<svg width="120" height="90" viewBox="0 0 120 90" fill="none" xmlns="http://www.w3.org/2000/svg">
<path d="M69.8059 73.9652C69.8059 70.6754 72.4887 68.0069 75.7978 68.0069C79.1045 68.0069 81.7873 70.673 81.7873 73.9652C81.7873 77.2573 79.1045 79.9235 75.7978 79.9235C72.4887 79.9211 69.8059 77.255 69.8059 73.9652ZM67.707 73.9652C67.707 78.4095 71.3281 82.0111 75.7978 82.0111C80.2651 82.0111 83.8862 78.4095 83.8862 73.9652C83.8862 69.5233 80.2651 65.9193 75.7978 65.9193C71.3281 65.9193 67.707 69.5209 67.707 73.9652Z" fill="url(#paint0_linear_555_5025)"/>
<path d="M44.1777 73.9652C44.1777 78.4095 47.7988 82.0111 52.2661 82.0111C55.944 82.0111 59.0474 79.5688 60.0283 76.229H57.8089C56.9131 78.3976 54.7692 79.9235 52.2661 79.9235C48.9594 79.9235 46.2767 77.2573 46.2767 73.9652C46.2767 70.673 48.9594 68.0069 52.2661 68.0069C54.7834 68.0069 56.9367 69.5518 57.8231 71.7395H60.0402C59.0711 68.3807 55.9581 65.9193 52.2661 65.9193C47.7988 65.9193 44.1777 69.5209 44.1777 73.9652Z" fill="url(#paint1_linear_555_5025)"/>
<path d="M64.9296 59.7729H62.8496V81.5111H64.9296V59.7729Z" fill="url(#paint2_linear_555_5025)"/>
<path d="M105.554 73.9651C105.554 70.6753 108.237 68.0069 111.544 68.0069C114.853 68.0069 117.536 70.673 117.536 73.9651C117.536 77.2573 114.853 79.9234 111.544 79.9234C108.237 79.921 105.554 77.2549 105.554 73.9651ZM117.536 59.7729V69.3566C116.316 67.5141 113.919 65.9168 111.544 65.9168C107.077 65.9168 103.453 69.5184 103.453 73.9627C103.453 78.407 107.077 82.0086 111.544 82.0086C113.917 82.0086 116.054 80.9922 117.536 79.3711C118.725 78.069 119.488 76.3765 119.613 74.5102C119.625 74.3293 119.635 74.1484 119.635 73.9651C119.635 73.7818 119.628 73.6009 119.613 73.42V59.7729H117.536Z" fill="url(#paint3_linear_555_5025)"/>
<path d="M99.0134 66.355V74.9674C99.0134 77.6454 96.8577 79.8164 94.1963 79.8164H93.135C90.4759 79.8164 88.3179 77.6454 88.3179 74.9674V66.355H86.2402V75.3388C86.2402 78.969 89.1617 81.9112 92.7663 81.9112H94.565C98.1696 81.9112 101.091 78.969 101.091 75.3388V66.355H99.0134Z" fill="url(#paint4_linear_555_5025)"/>
<path d="M27.221 65.9194C23.4888 65.9194 20.4609 68.9687 20.4609 72.7275V81.5089H22.5409V72.6061C22.5409 70.0685 24.5831 68.0118 27.1028 68.0118H28.7502C31.2699 68.0118 33.3121 70.0685 33.3121 72.6061V81.5089H35.3921V72.7275C35.3921 68.9664 32.3643 65.9194 28.6321 65.9194H27.221Z" fill="url(#paint5_linear_555_5025)"/>
<path d="M40.8691 66.3311H38.7891V81.5112H40.8691V66.3311Z" fill="url(#paint6_linear_555_5025)"/>
<path d="M15.3673 61.3491V74.2392C15.3673 77.1005 13.0628 79.4191 10.224 79.4191H8.37565C5.53454 79.4191 3.23235 77.1005 3.23235 74.2392V61.3491H1.15234V74.1369C1.15234 78.2098 4.43309 81.5115 8.47729 81.5115H10.12C14.1642 81.5115 17.445 78.2098 17.445 74.1369V61.3491H15.3673Z" fill="url(#paint7_linear_555_5025)"/>
<path d="M38.2305 62.1534C38.2305 63.0436 38.9443 63.7625 39.8283 63.7625C40.7099 63.7625 41.4261 63.0413 41.4261 62.1534C41.4261 61.2631 40.7099 60.5442 39.8283 60.5442C38.9443 60.5442 38.2305 61.2631 38.2305 62.1534Z" fill="url(#paint8_linear_555_5025)"/>
<path d="M44.6959 27.6057C44.1475 27.6057 43.7031 28.0532 43.7031 28.6055V37.3798C43.7031 37.9321 44.1475 38.3796 44.6959 38.3796H53.4106C53.959 38.3796 54.4034 37.9321 54.4034 37.3822V28.6055C54.4034 28.0532 53.959 27.6057 53.4106 27.6057H44.6959Z" fill="url(#paint9_linear_555_5025)"/>
<path d="M36.5277 46.1708C35.9438 46.1708 35.4688 46.6469 35.4688 47.2349V52.1339C35.4688 52.7218 35.9438 53.1979 36.5277 53.1979H41.3921C41.9759 53.1979 42.4486 52.7194 42.4486 52.1339V47.2349C42.4486 46.6469 41.9759 46.1708 41.3921 46.1708H36.5277Z" fill="url(#paint10_linear_555_5025)"/>
<path d="M28.2909 46.1708C27.7071 46.1708 27.2344 46.6469 27.2344 47.2349V52.1339C27.2344 52.7218 27.7071 53.1979 28.2909 53.1979H33.1553C33.7391 53.1979 34.2119 52.7194 34.2119 52.1339V47.2349C34.2119 46.6469 33.7368 46.1708 33.1553 46.1708H28.2909Z" fill="url(#paint11_linear_555_5025)"/>
<path d="M28.2909 38.8343C27.7071 38.8343 27.2344 39.3104 27.2344 39.8983V43.5023C27.2344 44.0903 27.7071 44.5664 28.2909 44.5664H31.8695C32.4533 44.5664 32.9284 44.0903 32.9284 43.5023V39.8983C32.9284 39.3104 32.4533 38.8343 31.8695 38.8343H28.2909Z" fill="url(#paint12_linear_555_5025)"/>
<path d="M28.2909 32.0451C27.7071 32.0451 27.2344 32.5212 27.2344 33.1092V36.1657C27.2344 36.7537 27.7071 37.2297 28.2909 37.2297H31.3258C31.912 37.2297 32.3848 36.7537 32.3848 36.1657V33.1092C32.3848 32.5212 31.912 32.0451 31.3258 32.0451H28.2909Z" fill="url(#paint13_linear_555_5025)"/>
<path d="M28.2909 26.4559C27.7071 26.4559 27.2344 26.9344 27.2344 27.5223V29.3767C27.2344 29.9647 27.7071 30.4431 28.2909 30.4431H30.1322C30.716 30.4431 31.1911 29.9647 31.1911 29.3767V27.5223C31.1911 26.9344 30.716 26.4559 30.1322 26.4559H28.2909Z" fill="url(#paint14_linear_555_5025)"/>
<path d="M44.6123 39.8745C44.1136 39.8745 43.707 40.2839 43.707 40.7862V52.3147C43.707 52.8217 44.1136 53.2288 44.6123 53.2288H59.95C60.4511 53.2288 60.8553 52.8217 60.8553 52.3147V40.7862C60.8553 40.2815 60.4511 39.8745 59.95 39.8745H44.6123Z" fill="url(#paint15_linear_555_5025)"/>
<path d="M56.9786 21.4117C56.1608 21.176 55.2981 21.0474 54.4046 21.0474C50.9608 21.0474 47.9542 22.9304 46.3398 25.7298H54.4022C55.3595 25.7298 56.1372 26.5106 56.1372 27.477V38.3795H63.5141C64.3839 38.3795 65.0907 39.0912 65.0907 39.9672V53.2311H92.5255C99.5337 53.2311 105.214 47.5109 105.214 40.4505C105.214 34.1232 100.647 28.8744 94.6528 27.8531C94.225 17.3673 85.6497 9 75.1362 9C66.8988 9 59.8481 14.1394 56.9786 21.4117Z" fill="url(#paint16_linear_555_5025)"/>
<defs>
<linearGradient id="paint0_linear_555_5025" x1="75.7957" y1="59.4072" x2="75.7957" y2="81.0506" gradientUnits="userSpaceOnUse">
<stop stop-color="#2DC3E8"/>
<stop offset="1" stop-color="#0097D6"/>
</linearGradient>
<linearGradient id="paint1_linear_555_5025" x1="52.1094" y1="59.4072" x2="52.1094" y2="81.0506" gradientUnits="userSpaceOnUse">
<stop stop-color="#2DC3E8"/>
<stop offset="1" stop-color="#0097D6"/>
</linearGradient>
<linearGradient id="paint2_linear_555_5025" x1="63.8891" y1="59.4071" x2="63.8891" y2="81.0505" gradientUnits="userSpaceOnUse">
<stop stop-color="#2DC3E8"/>
<stop offset="1" stop-color="#0097D6"/>
</linearGradient>
<linearGradient id="paint3_linear_555_5025" x1="111.545" y1="59.4071" x2="111.545" y2="81.0505" gradientUnits="userSpaceOnUse">
<stop stop-color="#2DC3E8"/>
<stop offset="1" stop-color="#0097D6"/>
</linearGradient>
<linearGradient id="paint4_linear_555_5025" x1="93.6671" y1="59.4072" x2="93.6671" y2="81.0507" gradientUnits="userSpaceOnUse">
<stop stop-color="#2DC3E8"/>
<stop offset="1" stop-color="#0097D6"/>
</linearGradient>
<linearGradient id="paint5_linear_555_5025" x1="27.9251" y1="60.2942" x2="27.9251" y2="81.4629" gradientUnits="userSpaceOnUse">
<stop stop-color="#F58220"/>
<stop offset="1" stop-color="#F04E25"/>
</linearGradient>
<linearGradient id="paint6_linear_555_5025" x1="39.8283" y1="60.2941" x2="39.8283" y2="81.4627" gradientUnits="userSpaceOnUse">
<stop stop-color="#F58220"/>
<stop offset="1" stop-color="#F04E25"/>
</linearGradient>
<linearGradient id="paint7_linear_555_5025" x1="9.30073" y1="60.2943" x2="9.30073" y2="81.463" gradientUnits="userSpaceOnUse">
<stop stop-color="#F58220"/>
<stop offset="1" stop-color="#F04E25"/>
</linearGradient>
<linearGradient id="paint8_linear_555_5025" x1="39.8285" y1="60.294" x2="39.8285" y2="81.4627" gradientUnits="userSpaceOnUse">
<stop stop-color="#F58220"/>
<stop offset="1" stop-color="#F04E25"/>
</linearGradient>
<linearGradient id="paint9_linear_555_5025" x1="49.0541" y1="27.1234" x2="49.0541" y2="53.6426" gradientUnits="userSpaceOnUse">
<stop stop-color="#F58220"/>
<stop offset="1" stop-color="#F04E25"/>
</linearGradient>
<linearGradient id="paint10_linear_555_5025" x1="38.9586" y1="27.1235" x2="38.9586" y2="53.6426" gradientUnits="userSpaceOnUse">
<stop stop-color="#F58220"/>
<stop offset="1" stop-color="#F04E25"/>
</linearGradient>
<linearGradient id="paint11_linear_555_5025" x1="30.7229" y1="27.1235" x2="30.7229" y2="53.6426" gradientUnits="userSpaceOnUse">
<stop stop-color="#F58220"/>
<stop offset="1" stop-color="#F04E25"/>
</linearGradient>
<linearGradient id="paint12_linear_555_5025" x1="30.0811" y1="27.1234" x2="30.0811" y2="53.6426" gradientUnits="userSpaceOnUse">
<stop stop-color="#F58220"/>
<stop offset="1" stop-color="#F04E25"/>
</linearGradient>
<linearGradient id="paint13_linear_555_5025" x1="29.8094" y1="27.1233" x2="29.8094" y2="53.6425" gradientUnits="userSpaceOnUse">
<stop stop-color="#F58220"/>
<stop offset="1" stop-color="#F04E25"/>
</linearGradient>
<linearGradient id="paint14_linear_555_5025" x1="29.2125" y1="27.1234" x2="29.2125" y2="53.6425" gradientUnits="userSpaceOnUse">
<stop stop-color="#F58220"/>
<stop offset="1" stop-color="#F04E25"/>
</linearGradient>
<linearGradient id="paint15_linear_555_5025" x1="52.2812" y1="27.1234" x2="52.2812" y2="53.6425" gradientUnits="userSpaceOnUse">
<stop stop-color="#F58220"/>
<stop offset="1" stop-color="#F04E25"/>
</linearGradient>
<linearGradient id="paint16_linear_555_5025" x1="75.7793" y1="9.20779" x2="75.7793" y2="52.9358" gradientUnits="userSpaceOnUse">
<stop stop-color="#2DC3E8"/>
<stop offset="1" stop-color="#0097D6"/>
</linearGradient>
</defs>
</svg>
