<svg width="24" height="24" viewBox="0 0 24 24" fill="none" xmlns="http://www.w3.org/2000/svg">
<path d="M20.6297 7.86871C20.5267 7.50614 20.3261 7.17561 20.0478 6.90999C19.7694 6.64436 19.4231 6.45288 19.0431 6.3546C17.634 6 12 6 12 6C12 6 6.366 6 4.95686 6.3546C4.18543 6.55215 3.57857 7.13252 3.37029 7.86871C3 9.21227 3 12 3 12C3 12 3 14.8012 3.37029 16.1313C3.57857 16.8675 4.18671 17.4479 4.95686 17.6454C6.366 18 12 18 12 18C12 18 17.634 18 19.0431 17.6454C19.4231 17.5471 19.7694 17.3556 20.0478 17.09C20.3261 16.8244 20.5267 16.4939 20.6297 16.1313C21 14.7877 21 12 21 12C21 12 21 9.21227 20.6297 7.86871Z" fill="#FF0000"/>
<path d="M10.2413 14.6375L14.7963 12.015L10.2413 9.3775V14.6375Z" fill="white"/>
</svg>
