<svg width="24" height="24" viewBox="0 0 24 24" fill="none" xmlns="http://www.w3.org/2000/svg">
<path d="M5.87127 2.34785C6.5401 2.24256 7.2203 2.24193 7.89608 2.25706L7.83797 2.31065C6.95378 2.88881 6.22052 3.6826 5.69064 4.59366C4.62834 6.41768 4.24118 8.57459 4.32897 10.6653C4.41613 12.3676 4.82539 14.0794 5.69316 15.5592C5.83842 15.824 6.08031 16.0579 6.0841 16.3794C6.11126 17.0692 5.76958 17.7192 5.30727 18.2123C5.33759 18.2438 5.36727 18.2753 5.39759 18.3069C5.83021 18.7785 6.29189 19.2217 6.73146 19.687C7.35609 20.3919 8.06787 21.0161 8.67986 21.7336C7.66177 21.7487 6.63168 21.796 5.62558 21.6062C4.35929 21.361 3.23509 20.4846 2.69826 19.3131C2.373 18.636 2.27574 17.8788 2.25047 17.1367C2.24984 13.7106 2.24984 10.2851 2.25047 6.85965C2.26437 5.71468 2.56815 4.51674 3.3753 3.66747C4.01445 2.94808 4.91949 2.48025 5.87127 2.34785Z" fill="#0068FF"/>
<path d="M15.144 8.6389C15.4149 8.6389 15.6859 8.6389 15.9574 8.6389C15.953 10.2233 15.953 11.8084 15.9574 13.3928C15.6922 13.3556 15.2507 13.5252 15.1509 13.1728C15.1345 11.6621 15.1497 10.1502 15.144 8.6389Z" fill="#0068FF"/>
<path d="M6.85525 8.69501C8.11586 8.69375 9.37522 8.68556 10.6352 8.69438C10.6264 8.94091 10.6125 9.2095 10.447 9.40873C9.58553 10.4793 8.74238 11.5638 7.88155 12.6343C8.7967 12.64 9.71184 12.6362 10.627 12.6362C10.6099 12.85 10.6851 13.099 10.5461 13.2844C10.459 13.4042 10.3011 13.3934 10.1704 13.3947C9.02533 13.3884 7.88029 13.4004 6.73588 13.3884C6.73904 13.1469 6.74157 12.8796 6.91083 12.6873C7.76219 11.6211 8.62365 10.5625 9.47121 9.49385C8.60028 9.49511 7.72871 9.48817 6.85778 9.49763C6.85209 9.2303 6.85399 8.96234 6.85525 8.69501Z" fill="#0068FF"/>
<path d="M17.974 9.74415C18.881 9.54177 19.865 10.1363 20.1132 11.0278C20.4245 11.9553 19.8561 13.058 18.917 13.3405C18.1193 13.621 17.1644 13.2547 16.7507 12.5208C16.4261 11.9786 16.4065 11.2687 16.7014 10.7107C16.9515 10.2183 17.4347 9.85827 17.974 9.74415ZM17.9589 10.5474C17.4056 10.7422 17.1075 11.4143 17.3235 11.9572C17.5023 12.4704 18.1041 12.7844 18.6271 12.6268C19.2239 12.4843 19.5845 11.7863 19.373 11.2145C19.1961 10.6483 18.5109 10.3217 17.9589 10.5474Z" fill="#0068FF"/>
<path d="M11.2554 10.4043C11.6918 9.86458 12.456 9.59851 13.1293 9.79081C13.3516 9.84692 13.5531 9.95789 13.7476 10.0758C13.7457 10.0165 13.7413 9.89862 13.7394 9.83936C13.9939 9.8381 14.2478 9.83873 14.5023 9.83747C14.501 11.0228 14.4998 12.2081 14.5029 13.3941C14.316 13.389 14.1259 13.4111 13.9421 13.3733C13.8133 13.3209 13.7735 13.1803 13.7223 13.0656C13.02 13.6103 11.9167 13.4868 11.3331 12.8235C10.711 12.181 10.6788 11.0865 11.2554 10.4043ZM12.2836 10.5632C11.6988 10.7687 11.4152 11.5209 11.7114 12.0631C11.964 12.5915 12.6752 12.8134 13.1836 12.5221C13.6554 12.2749 13.8733 11.6615 13.6705 11.171C13.4741 10.6376 12.8116 10.3387 12.2836 10.5632Z" fill="#0068FF"/>
<path d="M7.83797 2.31065C7.97945 2.2703 8.12723 2.25769 8.27376 2.25328C10.7994 2.26273 13.3251 2.25202 15.8507 2.25643C16.5259 2.26463 17.2048 2.21923 17.8749 2.322C18.8027 2.39262 19.6957 2.78478 20.386 3.40456C21.2525 4.23113 21.7148 5.4215 21.7294 6.60872C21.73 9.95095 21.7281 13.2957 21.7313 16.6367C21.7224 16.6562 21.7054 16.6966 21.6965 16.7168C20.7965 17.7218 19.5864 18.4021 18.3214 18.8422C16.6168 19.4222 14.7909 19.6088 12.9992 19.4726C11.2074 19.3188 9.40174 18.8516 7.88218 17.863C7.10535 18.2079 6.24831 18.3768 5.39759 18.3069C5.36727 18.2753 5.33759 18.2438 5.30727 18.2123C5.76958 17.7192 6.11126 17.0692 6.0841 16.3794C6.08031 16.0579 5.83842 15.824 5.69316 15.5592C4.82539 14.0794 4.41613 12.3676 4.32897 10.6653C4.24118 8.57459 4.62834 6.41768 5.69064 4.59366C6.22052 3.6826 6.95378 2.88881 7.83797 2.31065ZM15.144 8.6389C15.1497 10.1502 15.1345 11.6621 15.1509 13.1728C15.2507 13.5252 15.6922 13.3556 15.9574 13.3928C15.953 11.8084 15.953 10.2233 15.9574 8.6389C15.6859 8.6389 15.4149 8.6389 15.144 8.6389ZM6.85525 8.69501C6.85399 8.96234 6.85209 9.2303 6.85778 9.49763C7.72871 9.48817 8.60028 9.49511 9.47121 9.49385C8.62365 10.5625 7.76219 11.6211 6.91083 12.6873C6.74157 12.8796 6.73904 13.1469 6.73588 13.3884C7.88029 13.4004 9.02533 13.3884 10.1704 13.3947C10.3011 13.3934 10.459 13.4042 10.5461 13.2844C10.6851 13.099 10.6099 12.85 10.627 12.6362C9.71184 12.6362 8.7967 12.64 7.88155 12.6343C8.74238 11.5638 9.58553 10.4793 10.447 9.40873C10.6125 9.2095 10.6264 8.94091 10.6352 8.69438C9.37522 8.68556 8.11586 8.69375 6.85525 8.69501ZM17.974 9.74415C17.4347 9.85827 16.9515 10.2183 16.7014 10.7107C16.4065 11.2687 16.4261 11.9786 16.7507 12.5208C17.1644 13.2547 18.1193 13.621 18.917 13.3405C19.8561 13.058 20.4245 11.9553 20.1132 11.0278C19.865 10.1363 18.881 9.54177 17.974 9.74415ZM11.2554 10.4043C10.6788 11.0865 10.711 12.181 11.3331 12.8235C11.9167 13.4868 13.02 13.6103 13.7223 13.0656C13.7735 13.1803 13.8133 13.3209 13.9421 13.3733C14.1259 13.4111 14.316 13.389 14.5029 13.3941C14.4998 12.2081 14.501 11.0228 14.5023 9.83747C14.2478 9.83873 13.9939 9.8381 13.7394 9.83936C13.7413 9.89862 13.7457 10.0165 13.7476 10.0758C13.5531 9.95789 13.3516 9.84692 13.1293 9.79081C12.456 9.59851 11.6918 9.86458 11.2554 10.4043Z" fill="white"/>
<path d="M12.2836 10.5632C12.8116 10.3387 13.4741 10.6376 13.6705 11.171C13.8733 11.6615 13.6554 12.2749 13.1836 12.5221C12.6752 12.8134 11.964 12.5915 11.7114 12.0631C11.4152 11.5209 11.6988 10.7687 12.2836 10.5632Z" fill="white"/>
<path d="M17.9589 10.5474C18.5109 10.3217 19.1961 10.6483 19.373 11.2145C19.5845 11.7863 19.2239 12.4843 18.6271 12.6268C18.1041 12.7844 17.5023 12.4704 17.3235 11.9572C17.1075 11.4143 17.4056 10.7422 17.9589 10.5474Z" fill="white"/>
<path d="M21.6965 16.7168L21.7464 16.6625C21.7723 17.648 21.6656 18.6763 21.1812 19.5533C20.6178 20.5823 19.5959 21.3465 18.4465 21.5911C17.8016 21.7241 17.1404 21.7538 16.4835 21.7456C14.4631 21.7462 12.4428 21.7456 10.4224 21.7462C9.84132 21.7367 9.25901 21.7639 8.67986 21.7336C8.06787 21.0161 7.35609 20.3919 6.73146 19.687C6.29189 19.2217 5.83021 18.7785 5.39759 18.3069C6.24831 18.3768 7.10535 18.2079 7.88218 17.863C9.40174 18.8516 11.2074 19.3188 12.9992 19.4726C14.7909 19.6088 16.6168 19.4222 18.3214 18.8422C19.5864 18.4021 20.7965 17.7218 21.6965 16.7168Z" fill="#005BE0"/>
</svg>
